<svg xmlns="http://www.w3.org/2000/svg" viewBox="0 0 64 64" fill="none">
  <!-- 왼쪽 윗날개 -->
  <path d="M30 24C26 18 18 10 10 12c-6 1.5-8 8-5 14s10 10 16 10c3 0 6-1 9-4z" fill="url(#wing-upper)" opacity="0.9"/>
  <!-- 오른쪽 윗날개 -->
  <path d="M34 24c4-6 12-14 20-12 6 1.5 8 8 5 14s-10 10-16 10c-3 0-6-1-9-4z" fill="url(#wing-upper)" opacity="0.9"/>
  <!-- 왼쪽 아랫날개 -->
  <path d="M30 34c-4 3-10 10-12 17-1.5 5 1 9 5 10s9-1 12-6c2-3 2-6 1-9z" fill="url(#wing-lower)" opacity="0.85"/>
  <!-- 오른쪽 아랫날개 -->
  <path d="M34 34c4 3 10 10 12 17 1.5 5-1 9-5 10s-9-1-12-6c-2-3-2-6-1-9z" fill="url(#wing-lower)" opacity="0.85"/>
  <!-- 날개 무늬 - 윗날개 -->
  <path d="M28 22c-3-4-8-8-13-7-3 0.8-4 4-2.5 7s5 5 8 5c1.5 0 3-0.5 5-2z" fill="url(#pattern1)" opacity="0.4"/>
  <path d="M36 22c3-4 8-8 13-7 3 0.8 4 4 2.5 7s-5 5-8 5c-1.5 0-3-0.5-5-2z" fill="url(#pattern1)" opacity="0.4"/>
  <!-- 날개 무늬 - 아랫날개 점 -->
  <circle cx="22" cy="42" r="2.5" fill="#fff" opacity="0.3"/>
  <circle cx="42" cy="42" r="2.5" fill="#fff" opacity="0.3"/>
  <!-- 몸통 -->
  <ellipse cx="32" cy="32" rx="2" ry="12" fill="#92400e" opacity="0.9"/>
  <ellipse cx="32" cy="32" rx="1.5" ry="10" fill="#b45309"/>
  <!-- 더듬이 -->
  <path d="M31 21q-4-8-8-12" stroke="#92400e" stroke-width="1.2" stroke-linecap="round" fill="none"/>
  <path d="M33 21q4-8 8-12" stroke="#92400e" stroke-width="1.2" stroke-linecap="round" fill="none"/>
  <circle cx="23" cy="9" r="1.5" fill="#f59e0b"/>
  <circle cx="41" cy="9" r="1.5" fill="#f59e0b"/>
  <defs>
    <linearGradient id="wing-upper" x1="10" y1="10" x2="54" y2="40">
      <stop offset="0%" stop-color="#f97316"/>
      <stop offset="50%" stop-color="#f59e0b"/>
      <stop offset="100%" stop-color="#f97316"/>
    </linearGradient>
    <linearGradient id="wing-lower" x1="20" y1="34" x2="44" y2="60">
      <stop offset="0%" stop-color="#fb923c"/>
      <stop offset="100%" stop-color="#fbbf24"/>
    </linearGradient>
    <linearGradient id="pattern1" x1="16" y1="14" x2="48" y2="30">
      <stop offset="0%" stop-color="#fff"/>
      <stop offset="100%" stop-color="#fde68a"/>
    </linearGradient>
  </defs>
</svg>
