<svg xmlns="http://www.w3.org/2000/svg" viewBox="0 0 64 64" fill="none">
  <path d="M32 8c-8 0-18 6-22 18-2 6-1 12 2 16s8 6 12 4c3-1 5-4 7-8h2c2 4 4 7 7 8 4 2 9 0 12-4s4-10 2-16C48 14 40 8 32 8z" fill="url(#g1)" opacity="0.9"/>
  <path d="M32 12c-6 0-14 5-17 14-1.5 5-0.5 9 1.5 12s6 4 9 3c2-1 4-3 5.5-6h2c1.5 3 3.5 5 5.5 6 3 1 6.5 0 9-3s3-7 1.5-12C45 17 38 12 32 12z" fill="url(#g2)" opacity="0.7"/>
  <line x1="32" y1="14" x2="32" y2="50" stroke="#4338ca" stroke-width="1.5" stroke-linecap="round"/>
  <line x1="32" y1="14" x2="26" y2="6" stroke="#4338ca" stroke-width="1" stroke-linecap="round"/>
  <line x1="32" y1="14" x2="38" y2="6" stroke="#4338ca" stroke-width="1" stroke-linecap="round"/>
  <circle cx="26" cy="5" r="1.5" fill="#6366f1"/>
  <circle cx="38" cy="5" r="1.5" fill="#6366f1"/>
  <defs>
    <linearGradient id="g1" x1="10" y1="8" x2="54" y2="46">
      <stop offset="0%" stop-color="#0ea5e9"/>
      <stop offset="100%" stop-color="#6366f1"/>
    </linearGradient>
    <linearGradient id="g2" x1="15" y1="12" x2="49" y2="40">
      <stop offset="0%" stop-color="#38bdf8"/>
      <stop offset="100%" stop-color="#818cf8"/>
    </linearGradient>
  </defs>
</svg>
